<svg width="15" height="18" viewBox="0 0 15 18" fill="none" xmlns="http://www.w3.org/2000/svg">
<path d="M0 9L1.5 7.5H13.5L15 9V16.5L13.5 18H1.5L0 16.5V9ZM1.5 9V16.5H13.5V9H1.5ZM12 7.5V4.5C12 3.30653 11.5259 2.16193 10.682 1.31802C9.83807 0.474106 8.69347 0 7.5 0C6.30653 0 5.16193 0.474106 4.31802 1.31802C3.47411 2.16193 3 3.30653 3 4.5V7.5H4.5V4.5C4.5 3.70435 4.81607 2.94129 5.37868 2.37868C5.94129 1.81607 6.70435 1.5 7.5 1.5C8.29565 1.5 9.05871 1.81607 9.62132 2.37868C10.1839 2.94129 10.5 3.70435 10.5 4.5V7.5H12Z" fill="#827397"/>
</svg>
